<?xml version="1.0" standalone="no"?><!DOCTYPE svg PUBLIC "-//W3C//DTD SVG 1.1//EN" "http://www.w3.org/Graphics/SVG/1.1/DTD/svg11.dtd"><svg t="1490858218598" class="icon" style="" viewBox="0 0 1024 1024" version="1.1" xmlns="http://www.w3.org/2000/svg" p-id="3343" xmlns:xlink="http://www.w3.org/1999/xlink" width="200" height="200"><defs><style type="text/css"></style></defs><path d="M844.8 182.4c-34.4-16.8-80.8-30.4-140-40C645.6 132.8 581.6 128 512 128c-69.6 0-133.6 4.8-192.8 14.4-59.2 9.6-105.6 23.2-140 40-34.4 16.8-51.2 35.2-51.2 55.2v103.2c0 20 16.8 38.4 51.2 55.2 34.4 16.8 80.8 30.4 140 40 59.2 9.6 123.2 14.4 192.8 14.4 69.6 0 133.6-4.8 192.8-14.4 59.2-9.6 105.6-23.2 140-40 34.4-16.8 51.2-35.2 51.2-55.2V237.6c0-20-16.8-38.4-51.2-55.2zM832 328.8c-3.2 2.4-8 5.6-16 8.8-28.8 14.4-69.6 25.6-122.4 34.4-55.2 9.6-116.8 13.6-181.6 13.6-65.6 0-126.4-4.8-181.6-13.6-52.8-8.8-94.4-20-122.4-34.4-8-4-12.8-7.2-16-8.8v-80c3.2-2.4 8-5.6 16-8.8 28.8-14.4 69.6-25.6 122.4-34.4C385.6 196 447.2 192 512 192c65.6 0 126.4 4.8 181.6 13.6 52.8 8.8 93.6 20.8 122.4 34.4 8 4 12.8 7.2 16 8.8v80zM128 760v26.4c0 20 16.8 38.4 51.2 55.2s80.8 30.4 140 40c59.2 9.6 123.2 14.4 192.8 14.4s133.6-4.8 192.8-14.4c59.2-9.6 105.6-23.2 140-40 34.4-16.8 51.2-35.2 51.2-55.2v-32.8c-40 24-93.6 42.4-162.4 54.4-68.8 12-142.4 18.4-221.6 18.4s-152.8-6.4-221.6-18.4C221.6 795.2 168 777.6 128 753.6M128 608v29.6c0 20 16.8 38.4 51.2 55.2 34.4 16.8 80.8 30.4 140 40 59.2 9.6 123.2 14.4 192.8 14.4s133.6-4.8 192.8-14.4c59.2-9.6 105.6-23.2 140-40 34.4-16.8 51.2-35.2 51.2-55.2v-32.8c-40 24-93.6 42.4-162.4 54.4-68.8 12-142.4 18.4-221.6 18.4s-152.8-6.4-221.6-18.4C221.6 646.4 168 628.8 128 604.8M128 456v29.6c0 20 16.8 38.4 51.2 55.2 34.4 16.8 80.8 30.4 140 40 59.2 9.6 123.2 14.4 192.8 14.4s133.6-4.8 192.8-14.4c59.2-9.6 105.6-23.2 140-40 34.4-16.8 51.2-35.2 51.2-55.2v-32.8c-40 24-93.6 42.4-162.4 54.4-68.8 12-142.4 18.4-221.6 18.4s-152.8-6.4-221.6-18.4C221.6 494.4 168 476.8 128 452.8" p-id="3344"></path></svg>